<svg viewBox="0 0 70.866 70.866" xmlns="http://www.w3.org/2000/svg"><path d="m0 0h70.866v70.866h-70.866z" fill="#002e65"/><g transform="translate(-70.855)"><g fill="#35d1be"><path d="m94.617 61.223-.045-7.208-3.434 5.785h-2.35l-3.434-5.536v6.96h-4.854v-15.817h4.38l5.15 8.427 5.017-8.427h4.384l.045 15.816z"/><path d="m104.119 61.144a10.332 10.332 0 0 1 -3.062-1.186l1.719-3.887a10.881 10.881 0 0 0 2.529 1.051 9.919 9.919 0 0 0 2.689.4 4.162 4.162 0 0 0 1.583-.215.691.691 0 0 0 .474-.643c0-.331-.208-.581-.623-.746a13.212 13.212 0 0 0 -2.044-.542 23.27 23.27 0 0 1 -3.05-.825 5.2 5.2 0 0 1 -2.124-1.451 3.917 3.917 0 0 1 -.9-2.722 4.691 4.691 0 0 1 .836-2.711 5.527 5.527 0 0 1 2.5-1.921 10.372 10.372 0 0 1 4.034-.7 14.673 14.673 0 0 1 3.2.35 10.042 10.042 0 0 1 2.769 1.027l-1.605 3.865a9.811 9.811 0 0 0 -4.406-1.175q-2.055 0-2.057.993c0 .318.205.555.611.712a12.912 12.912 0 0 0 2.01.51 20.546 20.546 0 0 1 3.052.779 5.308 5.308 0 0 1 2.158 1.435 3.854 3.854 0 0 1 .914 2.711 4.629 4.629 0 0 1 -.836 2.7 5.619 5.619 0 0 1 -2.5 1.921 10.221 10.221 0 0 1 -4.034.712 16.627 16.627 0 0 1 -3.837-.442z"/><path d="m119.619 60.635a6.3 6.3 0 0 1 -2.6-2.282 6.336 6.336 0 0 1 0-6.632 6.325 6.325 0 0 1 2.6-2.27 8.431 8.431 0 0 1 3.762-.813 7.325 7.325 0 0 1 3.863.97 5.051 5.051 0 0 1 2.216 2.69l-3.955 1.942a2.315 2.315 0 0 0 -2.147-1.626 1.983 1.983 0 0 0 -1.5.633 2.5 2.5 0 0 0 -.6 1.785 2.532 2.532 0 0 0 .6 1.808 1.979 1.979 0 0 0 1.5.632 2.315 2.315 0 0 0 2.147-1.627l3.955 1.944a5.056 5.056 0 0 1 -2.216 2.689 7.325 7.325 0 0 1 -3.863.971 8.445 8.445 0 0 1 -3.762-.814z"/></g><path d="m90.958 33.958h4.633v6.689a10.8 10.8 0 0 1 -3.254 1.491 13.415 13.415 0 0 1 -3.638.519 9.667 9.667 0 0 1 -4.542-1.05 7.842 7.842 0 0 1 -3.151-2.938 8.6 8.6 0 0 1 0-8.563 7.782 7.782 0 0 1 3.186-2.937 9.95 9.95 0 0 1 4.62-1.05 10.6 10.6 0 0 1 4.169.778 7.839 7.839 0 0 1 3.062 2.272l-3.412 3a4.535 4.535 0 0 0 -3.548-1.739 3.738 3.738 0 0 0 -2.8 1.062 3.959 3.959 0 0 0 -1.039 2.891 3.994 3.994 0 0 0 1.028 2.87 3.606 3.606 0 0 0 2.745 1.086 5.044 5.044 0 0 0 1.943-.384z" fill="#fff"/><path d="m111.023 38.275v4.025h-13.15v-15.82h12.857v4.02h-7.614v1.853h6.684v3.847h-6.687v2.08z" fill="#fff"/><path d="m127.2 42.3-.045-7.207-3.434 5.784h-2.35l-3.434-5.536v6.959h-4.859v-15.82h4.385l5.15 8.427 5.016-8.427h4.385l.045 15.816z" fill="#fff"/></g></svg>